<mxfile host="app.diagrams.net" modified="2023-08-17T14:03:41.431Z" agent="Mozilla/5.0 (Macintosh; Intel Mac OS X 10_15_7) AppleWebKit/537.36 (KHTML, like Gecko) Chrome/115.0.0.0 Safari/537.36" etag="VhCyY2Uyq8b7nWpmtrSV" version="21.6.5">
  <diagram name="Page-1" id="juab4HqFQv2jONyvK4IC">
    <mxGraphModel dx="1590" dy="933" grid="1" gridSize="10" guides="1" tooltips="1" connect="1" arrows="1" fold="1" page="1" pageScale="1" pageWidth="827" pageHeight="1169" math="0" shadow="0">
      <root>
        <mxCell id="0" />
        <mxCell id="1" parent="0" />
        <mxCell id="G8N-DOlNY1IqbSWQYaFY-1" value="BOOKSTORE MANANGEMENT API" style="text;html=1;align=center;verticalAlign=middle;resizable=0;points=[];autosize=1;strokeColor=none;fillColor=none;" vertex="1" parent="1">
          <mxGeometry x="230" y="48" width="220" height="30" as="geometry" />
        </mxCell>
        <mxCell id="G8N-DOlNY1IqbSWQYaFY-2" value="CMD" style="rounded=0;whiteSpace=wrap;html=1;" vertex="1" parent="1">
          <mxGeometry x="190" y="240" width="90" height="40" as="geometry" />
        </mxCell>
        <mxCell id="G8N-DOlNY1IqbSWQYaFY-3" value="1. Database My SQL" style="text;html=1;align=center;verticalAlign=middle;resizable=0;points=[];autosize=1;strokeColor=none;fillColor=none;" vertex="1" parent="1">
          <mxGeometry x="165" y="78" width="130" height="30" as="geometry" />
        </mxCell>
        <mxCell id="G8N-DOlNY1IqbSWQYaFY-5" value="2. GORM&lt;br&gt;" style="text;html=1;align=center;verticalAlign=middle;resizable=0;points=[];autosize=1;strokeColor=none;fillColor=none;" vertex="1" parent="1">
          <mxGeometry x="185" y="98" width="70" height="30" as="geometry" />
        </mxCell>
        <mxCell id="G8N-DOlNY1IqbSWQYaFY-6" value="3. JSON Marshal Unmarshal" style="text;html=1;align=center;verticalAlign=middle;resizable=0;points=[];autosize=1;strokeColor=none;fillColor=none;" vertex="1" parent="1">
          <mxGeometry x="140" y="120" width="180" height="30" as="geometry" />
        </mxCell>
        <mxCell id="G8N-DOlNY1IqbSWQYaFY-7" value="4. Project Structure" style="text;html=1;align=center;verticalAlign=middle;resizable=0;points=[];autosize=1;strokeColor=none;fillColor=none;" vertex="1" parent="1">
          <mxGeometry x="370" y="78" width="130" height="30" as="geometry" />
        </mxCell>
        <mxCell id="G8N-DOlNY1IqbSWQYaFY-8" value="5. Gorilla Mux" style="text;html=1;align=center;verticalAlign=middle;resizable=0;points=[];autosize=1;strokeColor=none;fillColor=none;" vertex="1" parent="1">
          <mxGeometry x="370" y="110" width="100" height="30" as="geometry" />
        </mxCell>
        <mxCell id="G8N-DOlNY1IqbSWQYaFY-9" value="PROJECT STRUCTURE" style="text;html=1;align=center;verticalAlign=middle;resizable=0;points=[];autosize=1;strokeColor=none;fillColor=none;" vertex="1" parent="1">
          <mxGeometry x="210" y="158" width="160" height="30" as="geometry" />
        </mxCell>
        <mxCell id="G8N-DOlNY1IqbSWQYaFY-12" value="" style="endArrow=classic;html=1;rounded=0;exitX=0.5;exitY=1;exitDx=0;exitDy=0;" edge="1" parent="1" source="G8N-DOlNY1IqbSWQYaFY-2">
          <mxGeometry width="50" height="50" relative="1" as="geometry">
            <mxPoint x="390" y="330" as="sourcePoint" />
            <mxPoint x="235" y="340" as="targetPoint" />
          </mxGeometry>
        </mxCell>
        <mxCell id="G8N-DOlNY1IqbSWQYaFY-22" style="edgeStyle=orthogonalEdgeStyle;rounded=0;orthogonalLoop=1;jettySize=auto;html=1;exitX=0.5;exitY=1;exitDx=0;exitDy=0;entryX=0.5;entryY=0;entryDx=0;entryDy=0;" edge="1" parent="1" source="G8N-DOlNY1IqbSWQYaFY-14" target="G8N-DOlNY1IqbSWQYaFY-19">
          <mxGeometry relative="1" as="geometry" />
        </mxCell>
        <mxCell id="G8N-DOlNY1IqbSWQYaFY-24" style="edgeStyle=orthogonalEdgeStyle;rounded=0;orthogonalLoop=1;jettySize=auto;html=1;exitX=1;exitY=0.5;exitDx=0;exitDy=0;" edge="1" parent="1" source="G8N-DOlNY1IqbSWQYaFY-14">
          <mxGeometry relative="1" as="geometry">
            <mxPoint x="470" y="340" as="targetPoint" />
          </mxGeometry>
        </mxCell>
        <mxCell id="G8N-DOlNY1IqbSWQYaFY-25" style="edgeStyle=orthogonalEdgeStyle;rounded=0;orthogonalLoop=1;jettySize=auto;html=1;exitX=1;exitY=0.25;exitDx=0;exitDy=0;entryX=0.422;entryY=0.038;entryDx=0;entryDy=0;entryPerimeter=0;" edge="1" parent="1" source="G8N-DOlNY1IqbSWQYaFY-14" target="G8N-DOlNY1IqbSWQYaFY-29">
          <mxGeometry relative="1" as="geometry">
            <mxPoint x="600" y="330" as="targetPoint" />
          </mxGeometry>
        </mxCell>
        <mxCell id="G8N-DOlNY1IqbSWQYaFY-14" value="PKG" style="whiteSpace=wrap;html=1;" vertex="1" parent="1">
          <mxGeometry x="295" y="240" width="120" height="40" as="geometry" />
        </mxCell>
        <mxCell id="G8N-DOlNY1IqbSWQYaFY-37" style="edgeStyle=orthogonalEdgeStyle;rounded=0;orthogonalLoop=1;jettySize=auto;html=1;exitX=0.5;exitY=1;exitDx=0;exitDy=0;" edge="1" parent="1" source="G8N-DOlNY1IqbSWQYaFY-19">
          <mxGeometry relative="1" as="geometry">
            <mxPoint x="365" y="420" as="targetPoint" />
          </mxGeometry>
        </mxCell>
        <mxCell id="G8N-DOlNY1IqbSWQYaFY-19" value="controllers" style="whiteSpace=wrap;html=1;" vertex="1" parent="1">
          <mxGeometry x="320" y="340" width="90" height="35" as="geometry" />
        </mxCell>
        <mxCell id="G8N-DOlNY1IqbSWQYaFY-39" style="edgeStyle=orthogonalEdgeStyle;rounded=0;orthogonalLoop=1;jettySize=auto;html=1;exitX=0.5;exitY=1;exitDx=0;exitDy=0;" edge="1" parent="1" source="G8N-DOlNY1IqbSWQYaFY-27">
          <mxGeometry relative="1" as="geometry">
            <mxPoint x="465" y="420" as="targetPoint" />
          </mxGeometry>
        </mxCell>
        <mxCell id="G8N-DOlNY1IqbSWQYaFY-78" value="" style="edgeStyle=orthogonalEdgeStyle;rounded=0;orthogonalLoop=1;jettySize=auto;html=1;" edge="1" parent="1" source="G8N-DOlNY1IqbSWQYaFY-27" target="G8N-DOlNY1IqbSWQYaFY-40">
          <mxGeometry relative="1" as="geometry" />
        </mxCell>
        <mxCell id="G8N-DOlNY1IqbSWQYaFY-27" value="database" style="whiteSpace=wrap;html=1;" vertex="1" parent="1">
          <mxGeometry x="420" y="340" width="90" height="40" as="geometry" />
        </mxCell>
        <mxCell id="G8N-DOlNY1IqbSWQYaFY-42" style="edgeStyle=orthogonalEdgeStyle;rounded=0;orthogonalLoop=1;jettySize=auto;html=1;exitX=0.5;exitY=1;exitDx=0;exitDy=0;" edge="1" parent="1" source="G8N-DOlNY1IqbSWQYaFY-29">
          <mxGeometry relative="1" as="geometry">
            <mxPoint x="605" y="440" as="targetPoint" />
          </mxGeometry>
        </mxCell>
        <mxCell id="G8N-DOlNY1IqbSWQYaFY-29" value="routes" style="whiteSpace=wrap;html=1;" vertex="1" parent="1">
          <mxGeometry x="560" y="340" width="90" height="40" as="geometry" />
        </mxCell>
        <mxCell id="G8N-DOlNY1IqbSWQYaFY-36" value="main.go" style="text;html=1;align=center;verticalAlign=middle;resizable=0;points=[];autosize=1;strokeColor=none;fillColor=none;" vertex="1" parent="1">
          <mxGeometry x="195" y="342.5" width="70" height="30" as="geometry" />
        </mxCell>
        <mxCell id="G8N-DOlNY1IqbSWQYaFY-40" value="db_controller.go" style="text;html=1;align=center;verticalAlign=middle;resizable=0;points=[];autosize=1;strokeColor=none;fillColor=none;" vertex="1" parent="1">
          <mxGeometry x="405" y="428" width="110" height="30" as="geometry" />
        </mxCell>
        <mxCell id="G8N-DOlNY1IqbSWQYaFY-41" value="book_controller.go" style="text;html=1;align=center;verticalAlign=middle;resizable=0;points=[];autosize=1;strokeColor=none;fillColor=none;" vertex="1" parent="1">
          <mxGeometry x="290" y="418" width="120" height="30" as="geometry" />
        </mxCell>
        <mxCell id="G8N-DOlNY1IqbSWQYaFY-43" value="bookstore-routes.go" style="text;html=1;align=center;verticalAlign=middle;resizable=0;points=[];autosize=1;strokeColor=none;fillColor=none;" vertex="1" parent="1">
          <mxGeometry x="535" y="438" width="130" height="30" as="geometry" />
        </mxCell>
        <mxCell id="G8N-DOlNY1IqbSWQYaFY-44" value="controller functions" style="text;html=1;align=center;verticalAlign=middle;resizable=0;points=[];autosize=1;strokeColor=none;fillColor=none;" vertex="1" parent="1">
          <mxGeometry x="100" y="528" width="120" height="30" as="geometry" />
        </mxCell>
        <mxCell id="G8N-DOlNY1IqbSWQYaFY-45" value="GETBOOKS" style="rounded=0;whiteSpace=wrap;html=1;" vertex="1" parent="1">
          <mxGeometry x="110" y="570" width="100" height="40" as="geometry" />
        </mxCell>
        <mxCell id="G8N-DOlNY1IqbSWQYaFY-66" style="edgeStyle=orthogonalEdgeStyle;rounded=0;orthogonalLoop=1;jettySize=auto;html=1;exitX=0;exitY=0.5;exitDx=0;exitDy=0;entryX=1;entryY=0.5;entryDx=0;entryDy=0;" edge="1" parent="1" source="G8N-DOlNY1IqbSWQYaFY-46" target="G8N-DOlNY1IqbSWQYaFY-45">
          <mxGeometry relative="1" as="geometry" />
        </mxCell>
        <mxCell id="G8N-DOlNY1IqbSWQYaFY-46" value="/book/" style="rounded=0;whiteSpace=wrap;html=1;" vertex="1" parent="1">
          <mxGeometry x="350" y="570" width="100" height="40" as="geometry" />
        </mxCell>
        <mxCell id="G8N-DOlNY1IqbSWQYaFY-67" style="edgeStyle=orthogonalEdgeStyle;rounded=0;orthogonalLoop=1;jettySize=auto;html=1;exitX=0;exitY=0.5;exitDx=0;exitDy=0;" edge="1" parent="1" source="G8N-DOlNY1IqbSWQYaFY-47" target="G8N-DOlNY1IqbSWQYaFY-46">
          <mxGeometry relative="1" as="geometry" />
        </mxCell>
        <mxCell id="G8N-DOlNY1IqbSWQYaFY-47" value="GET" style="rounded=0;whiteSpace=wrap;html=1;" vertex="1" parent="1">
          <mxGeometry x="565" y="565" width="100" height="40" as="geometry" />
        </mxCell>
        <mxCell id="G8N-DOlNY1IqbSWQYaFY-48" value="CREATE BOOK" style="rounded=0;whiteSpace=wrap;html=1;" vertex="1" parent="1">
          <mxGeometry x="110" y="660" width="100" height="40" as="geometry" />
        </mxCell>
        <mxCell id="G8N-DOlNY1IqbSWQYaFY-69" style="edgeStyle=orthogonalEdgeStyle;rounded=0;orthogonalLoop=1;jettySize=auto;html=1;exitX=0;exitY=0.5;exitDx=0;exitDy=0;entryX=1;entryY=0.5;entryDx=0;entryDy=0;" edge="1" parent="1" source="G8N-DOlNY1IqbSWQYaFY-49" target="G8N-DOlNY1IqbSWQYaFY-48">
          <mxGeometry relative="1" as="geometry" />
        </mxCell>
        <mxCell id="G8N-DOlNY1IqbSWQYaFY-49" value="/book/" style="rounded=0;whiteSpace=wrap;html=1;" vertex="1" parent="1">
          <mxGeometry x="350" y="660" width="100" height="40" as="geometry" />
        </mxCell>
        <mxCell id="G8N-DOlNY1IqbSWQYaFY-68" style="edgeStyle=orthogonalEdgeStyle;rounded=0;orthogonalLoop=1;jettySize=auto;html=1;exitX=0;exitY=0.5;exitDx=0;exitDy=0;entryX=1;entryY=0.5;entryDx=0;entryDy=0;" edge="1" parent="1" source="G8N-DOlNY1IqbSWQYaFY-50" target="G8N-DOlNY1IqbSWQYaFY-49">
          <mxGeometry relative="1" as="geometry" />
        </mxCell>
        <mxCell id="G8N-DOlNY1IqbSWQYaFY-50" value="POST" style="rounded=0;whiteSpace=wrap;html=1;" vertex="1" parent="1">
          <mxGeometry x="566" y="660" width="100" height="40" as="geometry" />
        </mxCell>
        <mxCell id="G8N-DOlNY1IqbSWQYaFY-51" value="GET BOOK BY ID" style="rounded=0;whiteSpace=wrap;html=1;" vertex="1" parent="1">
          <mxGeometry x="110" y="760" width="100" height="40" as="geometry" />
        </mxCell>
        <mxCell id="G8N-DOlNY1IqbSWQYaFY-70" style="edgeStyle=orthogonalEdgeStyle;rounded=0;orthogonalLoop=1;jettySize=auto;html=1;exitX=0;exitY=0.5;exitDx=0;exitDy=0;entryX=1;entryY=0.75;entryDx=0;entryDy=0;" edge="1" parent="1" source="G8N-DOlNY1IqbSWQYaFY-52" target="G8N-DOlNY1IqbSWQYaFY-51">
          <mxGeometry relative="1" as="geometry" />
        </mxCell>
        <mxCell id="G8N-DOlNY1IqbSWQYaFY-52" value="/book{bookId}" style="rounded=0;whiteSpace=wrap;html=1;" vertex="1" parent="1">
          <mxGeometry x="340" y="760" width="100" height="40" as="geometry" />
        </mxCell>
        <mxCell id="G8N-DOlNY1IqbSWQYaFY-75" style="edgeStyle=orthogonalEdgeStyle;rounded=0;orthogonalLoop=1;jettySize=auto;html=1;exitX=0;exitY=0.5;exitDx=0;exitDy=0;entryX=1;entryY=0.5;entryDx=0;entryDy=0;" edge="1" parent="1" source="G8N-DOlNY1IqbSWQYaFY-53" target="G8N-DOlNY1IqbSWQYaFY-52">
          <mxGeometry relative="1" as="geometry" />
        </mxCell>
        <mxCell id="G8N-DOlNY1IqbSWQYaFY-53" value="GET" style="rounded=0;whiteSpace=wrap;html=1;" vertex="1" parent="1">
          <mxGeometry x="560" y="770" width="100" height="40" as="geometry" />
        </mxCell>
        <mxCell id="G8N-DOlNY1IqbSWQYaFY-54" value="UPDATE BOOK" style="rounded=0;whiteSpace=wrap;html=1;" vertex="1" parent="1">
          <mxGeometry x="110" y="840" width="100" height="40" as="geometry" />
        </mxCell>
        <mxCell id="G8N-DOlNY1IqbSWQYaFY-71" style="edgeStyle=orthogonalEdgeStyle;rounded=0;orthogonalLoop=1;jettySize=auto;html=1;exitX=0;exitY=0.5;exitDx=0;exitDy=0;" edge="1" parent="1" source="G8N-DOlNY1IqbSWQYaFY-55" target="G8N-DOlNY1IqbSWQYaFY-54">
          <mxGeometry relative="1" as="geometry" />
        </mxCell>
        <mxCell id="G8N-DOlNY1IqbSWQYaFY-55" value="/book/{bookid}" style="rounded=0;whiteSpace=wrap;html=1;" vertex="1" parent="1">
          <mxGeometry x="341" y="840" width="100" height="40" as="geometry" />
        </mxCell>
        <mxCell id="G8N-DOlNY1IqbSWQYaFY-74" style="edgeStyle=orthogonalEdgeStyle;rounded=0;orthogonalLoop=1;jettySize=auto;html=1;exitX=0;exitY=0.5;exitDx=0;exitDy=0;entryX=1;entryY=0.75;entryDx=0;entryDy=0;" edge="1" parent="1" source="G8N-DOlNY1IqbSWQYaFY-56" target="G8N-DOlNY1IqbSWQYaFY-55">
          <mxGeometry relative="1" as="geometry" />
        </mxCell>
        <mxCell id="G8N-DOlNY1IqbSWQYaFY-56" value="PUT" style="rounded=0;whiteSpace=wrap;html=1;" vertex="1" parent="1">
          <mxGeometry x="560" y="840" width="100" height="40" as="geometry" />
        </mxCell>
        <mxCell id="G8N-DOlNY1IqbSWQYaFY-57" value="DELETE BOOK" style="rounded=0;whiteSpace=wrap;html=1;" vertex="1" parent="1">
          <mxGeometry x="110" y="940" width="100" height="40" as="geometry" />
        </mxCell>
        <mxCell id="G8N-DOlNY1IqbSWQYaFY-72" style="edgeStyle=orthogonalEdgeStyle;rounded=0;orthogonalLoop=1;jettySize=auto;html=1;exitX=0;exitY=0.5;exitDx=0;exitDy=0;entryX=1;entryY=0.5;entryDx=0;entryDy=0;" edge="1" parent="1" source="G8N-DOlNY1IqbSWQYaFY-58" target="G8N-DOlNY1IqbSWQYaFY-57">
          <mxGeometry relative="1" as="geometry" />
        </mxCell>
        <mxCell id="G8N-DOlNY1IqbSWQYaFY-58" value="/book/{bookid}" style="rounded=0;whiteSpace=wrap;html=1;" vertex="1" parent="1">
          <mxGeometry x="326" y="940" width="100" height="40" as="geometry" />
        </mxCell>
        <mxCell id="G8N-DOlNY1IqbSWQYaFY-73" style="edgeStyle=orthogonalEdgeStyle;rounded=0;orthogonalLoop=1;jettySize=auto;html=1;exitX=0;exitY=0.5;exitDx=0;exitDy=0;entryX=1;entryY=0.5;entryDx=0;entryDy=0;" edge="1" parent="1" source="G8N-DOlNY1IqbSWQYaFY-59" target="G8N-DOlNY1IqbSWQYaFY-58">
          <mxGeometry relative="1" as="geometry" />
        </mxCell>
        <mxCell id="G8N-DOlNY1IqbSWQYaFY-59" value="DELETE" style="rounded=0;whiteSpace=wrap;html=1;" vertex="1" parent="1">
          <mxGeometry x="555" y="940" width="100" height="40" as="geometry" />
        </mxCell>
      </root>
    </mxGraphModel>
  </diagram>
</mxfile>
